<?xml version="1.0" encoding="UTF-8"?>
<svg id="Layer_2" data-name="Layer 2" xmlns="http://www.w3.org/2000/svg" viewBox="0 0 4251.97 1265.29">
  <defs>
    <style>
      .cls-1 {
        fill: #ffffff;
      }

      .cls-2 {
        fill: #ffffff;
      }
    </style>
  </defs>
  <g id="Layer_1-2" data-name="Layer 1">
    <g>
      <path class="cls-2" d="m754.56,982.88l-89.23-239.49H218.74l-88.98,239.49H0L379.42,0h122.73l382.17,982.88h-129.75Zm-496.72-344.7h368.32l-183.14-491.49-2.6.18-182.57,491.31Z"/>
      <path class="cls-2" d="m1336.33,300.41c76.17,0,136.33,23.77,180.53,71.29,44.19,47.54,66.29,117.9,66.29,211.11v400.07h-114.24v-368.23c0-140.28-55.95-210.43-167.83-210.43-65.83,0-118.26,21.46-157.26,64.37-39.04,42.91-58.54,102.23-58.54,177.89v336.39h-114.24V308.71h114.24v117.67h1.42c60.16-83.97,143.37-125.97,249.63-125.97Z"/>
      <path class="cls-2" d="m2278.06,308.71h114.24v674.18h-110.01v-106.6h-1.42c-58.31,76.61-138.22,114.91-239.77,114.91s-177.24-31.37-241.18-94.14c-63.95-62.75-95.91-144.88-95.91-246.41s31.74-182.95,95.21-249.88c63.46-66.9,143.61-100.36,240.47-100.36s176.76,36.47,236.95,109.36h1.42v-101.06Zm-227.08,580.04c63.93,0,118.47-22.37,163.6-67.14,45.13-44.75,67.71-101.75,67.71-170.97s-21.87-127.58-65.59-175.12c-43.72-47.52-98.51-71.3-164.31-71.3s-121.08,22.84-165.72,68.53c-44.67,45.69-67,104.99-67,177.89s21.37,126.22,64.17,170.97c42.78,44.77,98.49,67.14,167.14,67.14Z"/>
      <path class="cls-2" d="m2508.48,982.88V0h114.24v982.88h-114.24Z"/>
      <path class="cls-2" d="m4139.14,308.71h112.83v622.96c0,103.35-27.5,184.81-82.5,244.34-55.01,59.53-139.87,89.29-254.58,89.29-103.44,0-196.53-24.46-279.26-73.38l26.8-103.82c85.54,47.07,167.83,70.6,246.82,70.6,74.26,0,131.38-18.69,171.36-56.07,39.96-37.38,59.94-84.68,59.94-141.89v-94.14h-2.82c-57.37,69.22-134.93,103.82-232.71,103.82s-173.02-30.91-236.96-92.75c-63.95-61.82-95.91-142.11-95.91-240.88s31.25-176.03,93.8-240.18c62.52-64.13,140.33-96.21,233.42-96.21s175.82,34.15,236.94,102.44h2.83v-94.14Zm-225.67,556.5c68.63,0,124.12-21.9,166.43-65.75,42.31-43.83,63.47-99.89,63.47-168.2s-21.87-120.65-65.59-162.66c-43.73-41.98-98.51-62.99-164.32-62.99s-118.47,21.45-160.79,64.37c-42.31,42.91-63.46,97.14-63.46,162.66,0,70.15,21.62,126.45,64.88,168.89,43.23,42.47,96.37,63.68,159.37,63.68Z"/>
      <g>
        <path class="cls-1" d="m3454.85,643.98c0-194.1-160.31-351.44-358.06-351.44s-358.06,157.35-358.06,351.44c0,157.99,106.22,291.63,252.39,335.88l-45.52,105.55h302.39l-45.52-105.55c146.17-44.25,252.39-177.89,252.39-335.88Zm-293.31,240.98l-64.75-150.12-64.74,150.12c-108.74-28.17-189.15-125.53-189.15-240.98,0-137.41,113.9-249.21,253.9-249.21s253.9,111.8,253.9,249.21c0,115.46-80.42,212.82-189.16,240.98Z"/>
        <path class="cls-1" d="m3096.79,595.13c-27.49,0-49.77,21.87-49.77,48.85s22.28,48.85,49.77,48.85,49.77-21.87,49.77-48.85-22.28-48.85-49.77-48.85Z"/>
      </g>
    </g>
  </g>
</svg>
